<svg xmlns="http://www.w3.org/2000/svg" width="200" height="200" viewBox="0 0 200 200"><path fill="#d1758a" d="M100 58L58 58L58 16ZM100 58L100 16L142 16ZM100 142L142 142L142 184ZM100 142L100 184L58 184ZM58 100L16 100L16 58ZM142 100L142 58L184 58ZM142 100L184 100L184 142ZM58 100L58 142L16 142ZM100 79L100 100L79 100ZM121 100L100 100L100 79ZM100 121L100 100L121 100ZM79 100L100 100L100 121Z"/><path fill="#545454" d="M37 58L16 37L37 16L58 37ZM142 37L163 16L184 37L163 58ZM163 142L184 163L163 184L142 163ZM58 163L37 184L16 163L37 142Z"/></svg>